<svg xmlns="http://www.w3.org/2000/svg" viewBox="0 0 293.12 360.21"><defs><style>.cls-1{fill:#fff;}</style></defs><g id="Layer_2" data-name="Layer 2"><g id="Layer_1-2" data-name="Layer 1"><path class="cls-1" d="M16.77,235.93c-3.23-3.1-6.07-5.73-8.79-8.47-13.75-13.86-8.83-33.79,9.75-39.67.46-.14.91-.3,1.48-.49-2.89-11.66.63-20.73,11.48-27.7-3.18-3-6.19-5.71-9.13-8.54-2.61-2.52-5.15-5.11-7.7-7.69-8.18-8.29-10.08-18.58-5.18-28.07s14.48-13.89,26.39-11.86v-4q0-33.77,0-67.52C35.09,12.69,47.76,0,67,0H183.28c19.23,0,31.83,12.68,31.84,32q0,54,0,108v4.26c2.94,0,5.69-.37,8.29.07,8.27,1.39,14.05,7.6,15.58,16.13,3.83,21.39,7.95,42.73,11.39,64.18.82,5.12-.32,10.63-1,15.91-1.07,8.81-2.52,17.56-3.67,26.35a16.54,16.54,0,0,0,.26,5.87q4.75,19.65,9.83,39.23a12.44,12.44,0,0,0,3.1,5.31c10.26,10.44,20.63,20.75,31,31.07,2.23,2.22,4.09,4.51,2.7,7.9s-4.17,3.85-7.39,3.85q-67.12-.06-134.26,0a9.88,9.88,0,0,1-7.62-3.21c-6.1-6.27-12.25-12.5-18.6-18.52a8.78,8.78,0,0,0-5.46-2.23c-17.5-.16-35-.08-52.5-.1-18.84,0-31.5-12.61-31.83-31.4a7.58,7.58,0,0,0-2.14-4.61c-9-9.17-18.65-17.81-27.22-27.38-10.34-11.54-5.76-29.45,8.46-35.64C14.76,236.83,15.44,236.52,16.77,235.93ZM203.11,276V72.46c0-14.13.07-28.26,0-42.39-.07-9.22-6.56-17-15.53-17.8-6.65-.61-13.41-.12-20.45-.12,0,5.47,0,10.7,0,15.92,0,5.92-2,7.94-7.81,8H91c-6,0-7.94-2-8-8.18,0-5.2,0-10.4,0-15.83H66.9c-12.49,0-19.81,7.32-19.82,19.78q0,37.34,0,74.65c0,16.25,0,32.51.07,48.76a5,5,0,0,0,1.71,3.44c3.61,2.8,7.68,5.05,11.1,8.05,3.7,3.23,6.87,7.06,10.78,11.16.84-8.63,2.11-9.77,9.68-9.77,10.38,0,20.75,0,31.13,0,5.41,0,7.52,2.09,7.53,7.45q0,16.52,0,33c0,5.41-2.1,7.52-7.45,7.54-8,0-16,0-24,0-1.15,0-2.84.15-3.35.88-3.77,5.39-9,8.49-15.39,10a22.45,22.45,0,0,1-1.38,17.74c-2.91,5.67-7.7,9.18-13.7,11.38C59.54,262.72,67,267.38,69.19,276Zm-62.42,60.13-.57.92c3.14,3,6.16,6.16,9.48,8.93a8.91,8.91,0,0,0,5.16,2.07q57,.17,114,.08c1,0,2.06-.15,3.66-.27-8.27-8.26-16.14-15.94-23.76-23.86a15.73,15.73,0,0,1-3.79-6.64c-3.89-14.84-7.54-29.75-11.19-44.66a13.11,13.11,0,0,1-.28-4.79c1.28-9.41,2.79-18.78,4-28.18.61-4.55,1.73-9.28,1-13.68-2.73-17.39-6.05-34.68-9.22-52a135.4,135.4,0,0,0-3-13.87c-.77-2.63-2.91-4.56-6-4s-4.93,2.75-5.05,6.06c0,1.13,0,2.25,0,3.38q0,69.18,0,138.37c0,19.51-12.61,32.12-32.11,32.14Q161.85,336.17,140.69,336.15ZM47.38,305.26A17.4,17.4,0,0,0,64.6,324.08q60.53.19,121.05,0c8.11,0,15.53-5.57,16.63-13.54,1-7.28.21-14.81.21-22.26H69.24C65.68,298.93,58.22,304.41,47.38,305.26Zm-4.62-136c-6.33.32-9.88,2.33-11.64,6.73a10.54,10.54,0,0,0,2.45,12.06Q45.3,199.89,57.13,211.6c4.73,4.68,11.15,4.79,15.7.4s4.49-10.95-.17-15.73c-7.76-7.94-15.56-15.84-23.6-23.49C47,170.86,44.05,170,42.76,169.28Zm4,76.16c4.79-.68,8.64-3.17,10.23-7.34A10.64,10.64,0,0,0,54.5,226c-7.84-7.88-15.7-15.76-23.63-23.56a10.88,10.88,0,0,0-15.68,15.1c8,8.27,16.12,16.42,24.44,24.35C41.46,243.66,44.36,244.29,46.77,245.44ZM46.4,293.6c5.14-.85,8.66-2.92,10.49-7.26a10.38,10.38,0,0,0-2.22-12.1q-11.55-11.75-23.3-23.32c-4.71-4.61-11.38-4.56-15.73-.13s-4.24,11,.44,15.75c7.53,7.66,15.06,15.32,22.83,22.72C40.94,291.2,43.88,292.18,46.4,293.6ZM154.93,12.27H95.39V23.83h59.54ZM89.3,203.9h17.58V180.31h-24c.29,3.66,0,7.22,1,10.43C85.05,195.07,87.25,199.13,89.3,203.9ZM35.07,147.19c0-10,.07-19.28-.09-28.59a4.21,4.21,0,0,0-2.13-2.91c-4.26-2.12-9.53-.51-12.56,3.58a10.67,10.67,0,0,0,.44,13.78C25.14,137.76,29.91,142.14,35.07,147.19Z"/><path class="cls-1" d="M95.09,108.05c5.62,0,11.25,0,16.87,0,4.9,0,7.1,2.21,7.12,7.11q.06,16.89,0,33.76c0,4.9-2.23,7.1-7.12,7.12q-16.87.06-33.76,0c-4.89,0-7.08-2.22-7.1-7.12q-.07-16.89,0-33.76c0-4.91,2.2-7.07,7.11-7.11C83.84,108,89.46,108.05,95.09,108.05ZM83.26,143.86h23.59V120.33H83.26Z"/><path class="cls-1" d="M155.1,156.07c-5.62,0-11.25,0-16.88,0-4.9-.05-7.09-2.22-7.11-7.12q-.06-16.87,0-33.76c0-4.91,2.2-7.09,7.11-7.11q16.88-.07,33.75,0c4.9,0,7.1,2.21,7.12,7.11q.07,16.88,0,33.76c0,4.9-2.22,7.07-7.11,7.12C166.35,156.11,160.73,156.07,155.1,156.07Zm-11.81-35.85v23.63h23.56V120.22Z"/><path class="cls-1" d="M155.1,168.08c5.63,0,11.25,0,16.88,0,4.9,0,7.09,2.22,7.11,7.12q.07,16.88,0,33.76c0,4.9-2.22,7.1-7.12,7.11q-16.87.07-33.75,0c-4.9,0-7.09-2.21-7.11-7.12q-.06-16.87,0-33.76c0-4.9,2.2-7.06,7.11-7.11C143.85,168,149.48,168.08,155.1,168.08Zm11.84,12.28H143.4v23.53h23.54Z"/><path class="cls-1" d="M179.32,24.19h11.51V35.78H179.32Z"/><path class="cls-1" d="M95.39,60.17h11.47V71.84H95.39Z"/><path class="cls-1" d="M130.82,71.89H119.31V60.21h11.51Z"/><path class="cls-1" d="M154.84,71.87H143.29V60.33h11.55Z"/><path class="cls-1" d="M95.27,263.87V252.3h11.54v11.57Z"/><path class="cls-1" d="M130.81,264H119.32V252.31h11.49Z"/><path class="cls-1" d="M143.28,263.91V252.39h11.58v11.52Z"/><path class="cls-1" d="M137,300.37v11.47H113.37V300.37Z"/></g></g></svg>