<svg xmlns="http://www.w3.org/2000/svg" viewBox="0 0 384 360.01"><defs><style>.cls-1{fill:#fff;}</style></defs><g id="Layer_2" data-name="Layer 2"><g id="Layer_1-2" data-name="Layer 1"><path class="cls-1" d="M0,360V0H384V360Zm361.23-22.67V90.3H22.7v247ZM22.67,67.26H361.21V22.7h-23v22H315.62v-22H293.07v22H270.65v-22H248.1V44.74H225.55v-22H22.67Z"/><path class="cls-1" d="M68.44,157.5V135H73q75.18,0,150.36.06c2.92,0,4.48-.62,5.92-3.49,6.19-12.38,16.49-19,30.32-19s24.05,6.79,30.22,19.17c1.26,2.54,2.53,3.38,5.27,3.29,6.73-.21,13.46-.07,20.41-.07v22.5c-7,0-13.82.13-20.65-.06-2.63-.08-3.79.83-5,3.18-6.26,12.51-16.54,19.31-30.54,19.27-13.84,0-24-6.81-30.21-19.17-1.27-2.55-2.56-3.29-5.29-3.28q-75.36.13-150.74.06Zm191.2,0a11.24,11.24,0,1,0-11.38-11A11.38,11.38,0,0,0,259.64,157.49Z"/><path class="cls-1" d="M315.66,202.5V225h-4.31q-75.36,0-150.74-.06c-2.91,0-4.49.63-5.92,3.5-6.18,12.39-16.5,19-30.32,18.95s-24-6.81-30.22-19.18c-1.27-2.55-2.55-3.36-5.28-3.27-6.72.2-13.45.06-20.4.06V202.5c5.06,0,10.27-.3,15.43.09,5.58.41,9-.66,12.19-6.39,6.34-11.55,17.25-16.84,30.42-16,13,.77,22.6,7.42,28.34,19.15,1.25,2.56,2.56,3.27,5.28,3.27q75.38-.13,150.74-.07Zm-191.21,0a11.24,11.24,0,1,0,11.28,11.1A11.39,11.39,0,0,0,124.45,202.51Z"/><path class="cls-1" d="M68.4,292.5V270h4.52q75.38,0,150.75.06c2.82,0,4.22-.7,5.58-3.41,6.27-12.51,16.66-19.18,30.66-19,13.84.15,23.94,7,30.08,19.41,1.11,2.24,2.14,3.12,4.66,3.05,6.85-.19,13.72-.07,20.84-.07v22.5c-7,0-13.95.09-20.91-.05-2.26,0-3.41.55-4.48,2.75-6.16,12.74-16.48,19.7-30.64,19.69s-24.48-7-30.57-19.77c-1.22-2.55-2.74-2.64-4.92-2.63q-75.37,0-150.75,0ZM260.05,270a11.24,11.24,0,1,0,10.68,11.69A11.41,11.41,0,0,0,260.05,270Z"/></g></g></svg>