<svg xmlns="http://www.w3.org/2000/svg" viewBox="0 0 931.06 742.79"><defs><style>.cls-1{fill:#fff;}</style></defs><g id="Layer_2" data-name="Layer 2"><g id="Layer_1-2" data-name="Layer 1"><path class="cls-1" d="M890.6,598.78h-37A40.13,40.13,0,0,0,857.31,582V518.91a40.22,40.22,0,0,0-3.3-16h19.61a40.51,40.51,0,0,0,40.46-40.46V399.38a40.51,40.51,0,0,0-40.46-40.47h-37a40.28,40.28,0,0,0,3.66-16.79V279a40.16,40.16,0,0,0-3-15.14,40.53,40.53,0,0,0,34.49-40V160.8a40.51,40.51,0,0,0-40.46-40.46h-37a40.18,40.18,0,0,0,3.67-16.8V40.46A40.51,40.51,0,0,0,757.64,0H556.76a40.31,40.31,0,0,0-28.63,11.9A40.33,40.33,0,0,0,499.5,0H298.61A40.33,40.33,0,0,0,270,11.9,40.33,40.33,0,0,0,241.35,0H40.46A40.51,40.51,0,0,0,0,40.46v63.08A40.51,40.51,0,0,0,40.46,144h37a40.28,40.28,0,0,0-3.66,16.79v63.08A40.16,40.16,0,0,0,76.71,239a40.53,40.53,0,0,0-34.49,40v63.08a40.51,40.51,0,0,0,40.46,40.46h37a40.18,40.18,0,0,0-3.67,16.8v63.08a40.26,40.26,0,0,0,3.3,16H99.66A40.51,40.51,0,0,0,59.2,518.91V582a40.51,40.51,0,0,0,40.46,40.46h37a40.17,40.17,0,0,0-3.66,16.8v63.08a40.51,40.51,0,0,0,40.46,40.46H374.31a40.29,40.29,0,0,0,28.62-11.9,40.33,40.33,0,0,0,28.63,11.9H632.45a40.33,40.33,0,0,0,28.63-11.9,40.33,40.33,0,0,0,28.63,11.9H890.6a40.51,40.51,0,0,0,40.46-40.46V639.25A40.51,40.51,0,0,0,890.6,598.78Zm-17-214a14.55,14.55,0,0,1,14.55,14.56v63.08A14.54,14.54,0,0,1,873.62,477H672.73a14.55,14.55,0,0,1-14.56-14.55V399.38a14.56,14.56,0,0,1,14.56-14.56Zm-532.8-28.14a14.55,14.55,0,0,1-14.55-14.56V279a14.55,14.55,0,0,1,14.55-14.56H541.71A14.56,14.56,0,0,1,556.27,279v63.08a14.56,14.56,0,0,1-14.56,14.56Zm31.06,42.7v63.08A14.55,14.55,0,0,1,357.32,477H156.43a14.54,14.54,0,0,1-14.55-14.55V399.38a14.55,14.55,0,0,1,14.55-14.56H357.32A14.56,14.56,0,0,1,371.88,399.38Zm28.14,0a14.56,14.56,0,0,1,14.56-14.56H615.47A14.56,14.56,0,0,1,630,399.38v63.08A14.55,14.55,0,0,1,615.47,477H414.58A14.55,14.55,0,0,1,400,462.46Zm199-42.7a14.56,14.56,0,0,1-14.56-14.56V279A14.56,14.56,0,0,1,599,264.48H799.86A14.56,14.56,0,0,1,814.42,279v63.08a14.56,14.56,0,0,1-14.56,14.56ZM831.4,146.24A14.56,14.56,0,0,1,846,160.8v63.08a14.56,14.56,0,0,1-14.56,14.56H630.51A14.56,14.56,0,0,1,616,223.88V160.8a14.56,14.56,0,0,1,14.56-14.56ZM542.2,40.46a14.55,14.55,0,0,1,14.56-14.55H757.64A14.55,14.55,0,0,1,772.2,40.46v63.08a14.56,14.56,0,0,1-14.56,14.56H556.76a14.56,14.56,0,0,1-14.56-14.56Zm31,105.78a14.56,14.56,0,0,1,14.56,14.56v63.08a14.56,14.56,0,0,1-14.56,14.56H372.37a14.56,14.56,0,0,1-14.56-14.56V160.8a14.56,14.56,0,0,1,14.56-14.56ZM284.05,40.46a14.55,14.55,0,0,1,14.56-14.55H499.5a14.54,14.54,0,0,1,14.55,14.55v63.08A14.55,14.55,0,0,1,499.5,118.1H298.61a14.56,14.56,0,0,1-14.56-14.56Zm31.06,105.78a14.55,14.55,0,0,1,14.55,14.56v63.08a14.55,14.55,0,0,1-14.55,14.56H114.22a14.56,14.56,0,0,1-14.56-14.56V160.8a14.56,14.56,0,0,1,14.56-14.56ZM40.46,118.1A14.56,14.56,0,0,1,25.9,103.54V40.46A14.55,14.55,0,0,1,40.46,25.91H241.35a14.55,14.55,0,0,1,14.56,14.55v63.08a14.56,14.56,0,0,1-14.56,14.56ZM82.68,356.68a14.56,14.56,0,0,1-14.56-14.56V279a14.56,14.56,0,0,1,14.56-14.56H283.57A14.55,14.55,0,0,1,298.12,279v63.08a14.55,14.55,0,0,1-14.55,14.56Zm17,239.87A14.56,14.56,0,0,1,85.1,582V518.91a14.56,14.56,0,0,1,14.56-14.56H300.55a14.56,14.56,0,0,1,14.56,14.56V582a14.56,14.56,0,0,1-14.56,14.56Zm289.2,105.78a14.54,14.54,0,0,1-14.55,14.55H173.42a14.55,14.55,0,0,1-14.56-14.55V639.25a14.56,14.56,0,0,1,14.56-14.56H374.31a14.55,14.55,0,0,1,14.55,14.56ZM357.81,596.55A14.56,14.56,0,0,1,343.25,582V518.91a14.56,14.56,0,0,1,14.56-14.56H558.7a14.55,14.55,0,0,1,14.55,14.56V582a14.55,14.55,0,0,1-14.55,14.56ZM647,702.33a14.55,14.55,0,0,1-14.56,14.55H431.56A14.54,14.54,0,0,1,417,702.33V639.25a14.55,14.55,0,0,1,14.55-14.56H632.45A14.56,14.56,0,0,1,647,639.25ZM616,596.55A14.55,14.55,0,0,1,601.4,582V518.91A14.55,14.55,0,0,1,616,504.35H816.84a14.56,14.56,0,0,1,14.56,14.56V582a14.56,14.56,0,0,1-14.56,14.56ZM905.16,702.33a14.55,14.55,0,0,1-14.56,14.55H689.71a14.55,14.55,0,0,1-14.56-14.55V639.25a14.56,14.56,0,0,1,14.56-14.56H890.6a14.56,14.56,0,0,1,14.56,14.56Z"/><path class="cls-1" d="M764.05,242.89l0-4.57c0-10.89-.09-22,0-32.94.13-30.43-16-54.57-44.34-66.22l-31-12.79c-.71-.28-1.42-.58-2.13-.87L659.6,114.42l-2.13-.88q-52-21.44-104-42.9L493.76,46l-4.85-2-10-4h-27L383.73,68.11q-55.07,22.71-110.14,45.41l-2.13.88Q258,120,244.59,125.47l-2.13.88L214,138.06c-32.06,13.21-47,35.28-47,69.47q0,15.41-.05,30.79c0,1,0,2,0,3,0,8.58,0,17.26-.05,26,0,16.31,0,32.81.16,49.18C167.69,382.3,180.73,443,206,498.28c.08.19.16.37.26.56q6.65,14.48,14.43,28.44a6.12,6.12,0,0,0,.31.56q35,62.64,92.42,114.85c29.16,26.47,63,49,101,67.24q14.13,6.8,29,12.76l.61.25,8,3.21h26.67l8-3.19c57.56-23,108-56,149.89-98.31a443,443,0,0,0,73.2-96.81l.31-.56q7.72-14,14.35-28.44c.09-.18.17-.37.26-.56a425.07,425.07,0,0,0,32.47-107.14c4.56-27.47,5.79-54.54,6.39-77.4.41-15.52.5-31.07.48-46.42C764.14,259.11,764.09,251,764.05,242.89Z"/><path d="M460.77,84.14h9.41c2.16.87,4.32,1.72,6.48,2.61q112.94,46.6,225.9,93.17c11.48,4.73,17,12.9,16.9,25.28-.16,35.8.64,71.62-.3,107.39-.63,23.85-1.92,47.9-5.82,71.39-13.49,81.26-50.29,151.09-108.41,209.74-38.56,38.91-83.78,68-134.75,88.3h-9.41c-43.22-17.3-82.83-40.62-117.25-71.87Q213.19,491.8,211.6,316.1c-.33-36.18,0-72.38,0-108.56,0-16.31,4.3-22.44,19.56-28.72Q346,131.54,460.77,84.14ZM258.57,292.67c-.46,26.12-.52,60.18,7,93.7Q303.43,555.84,461,631a11.51,11.51,0,0,0,8.57.27C592,575.93,671.07,455.06,672.3,321.4c.31-32.69,0-65.39.18-98.08,0-3.91-1.11-5.76-4.81-7.28q-99-40.62-197.85-81.39a11.92,11.92,0,0,0-8.22-.11q-99.53,40.77-198.93,81.8c-3.35,1.38-4.19,3.16-4.16,6.5C258.64,243.46,258.57,264.09,258.57,292.67Z"/><path d="M439.52,396.42c1.72-1.6,3.3-3,4.79-4.47q47.35-47,94.68-94.07c7.08-7.07,15.2-10.18,25-7.22A23.06,23.06,0,0,1,575.83,327a55.45,55.45,0,0,1-5.17,5.57Q514.81,388,459,443.52c-13,12.91-25.81,13-38.72.15q-31.17-30.92-62.3-61.88c-6.75-6.73-9.42-14.69-6.56-24,2.76-9,9-14.42,18.24-16.22,8.84-1.72,16,1.6,22.23,7.79q22.16,22.13,44.44,44.14C437.22,394.46,438.26,395.3,439.52,396.42Z"/></g></g></svg>