<svg xmlns="http://www.w3.org/2000/svg" viewBox="0 0 323.58 384"><defs><style>.cls-1{fill:#fff;}</style></defs><g id="Layer_2" data-name="Layer 2"><g id="Layer_1-2" data-name="Layer 1"><path class="cls-1" d="M158.76,0h6c1.37.56,2.75,1.11,4.12,1.68Q240.8,31.6,312.72,61.52c7.3,3,10.79,8.28,10.75,16.23-.09,23,.41,46-.19,69-.4,15.31-1.22,30.76-3.7,45.85-8.59,52.19-32,97-69,134.71C226,352.28,197.2,371,164.75,384h-6C131.24,372.89,106,357.91,84.1,337.84Q1.1,261.84.1,149c-.21-23.24,0-46.48,0-69.73,0-10.47,2.74-14.4,12.45-18.44Q85.66,30.45,158.76,0ZM30,133.93c-.29,16.78-.33,38.66,4.44,60.19Q58.57,303,158.9,351.25a7.2,7.2,0,0,0,5.45.17,220.94,220.94,0,0,0,129.1-199c.19-21,0-42,.11-63,0-2.51-.71-3.7-3.06-4.68q-63-26.08-126-52.27a7.53,7.53,0,0,0-5.23-.07Q95.92,58.56,32.62,84.91c-2.13.88-2.66,2-2.65,4.17C30.05,102.33,30,115.58,30,133.93Z"/><path class="cls-1" d="M145.23,200.57c1.09-1,2.1-1.92,3.05-2.87q30.15-30.19,60.28-60.42c4.51-4.54,9.68-6.54,15.94-4.64A14.86,14.86,0,0,1,232,156a35.88,35.88,0,0,1-3.29,3.58q-35.56,35.66-71.13,71.28c-8.29,8.29-16.43,8.32-24.66.1q-19.84-19.86-39.66-39.75c-4.3-4.32-6-9.44-4.18-15.4a14.32,14.32,0,0,1,11.61-10.42c5.63-1.1,10.22,1,14.16,5q14.1,14.22,28.29,28.36C143.76,199.31,144.42,199.85,145.23,200.57Z"/></g></g></svg>