<svg xmlns="http://www.w3.org/2000/svg" viewBox="0 0 359.37 359.18"><defs><style>.cls-1{fill:#fff;}</style></defs><g id="Layer_2" data-name="Layer 2"><g id="Layer_1-2" data-name="Layer 1"><path class="cls-1" d="M217.69,299.54c4.89,16.29,9.61,32,14.39,48h19.3v11.66H108V347.47c5.17,0,10.47-.17,15.76.06,2.76.12,3.83-.82,4.59-3.45,4.25-14.7,8.73-29.33,13.29-44.54H20.62c-13.55,0-20.62-7-20.62-20.42V20.42C0,7.14,7.08,0,20.24,0H339.15c13,0,20.22,7.14,20.22,20.07q0,129.72,0,259.44c0,12.77-7.2,20-19.89,20H217.69Zm129.7-48.06V20.57c0-6.85-1.74-8.59-8.63-8.59H20.64C13.72,12,12,13.7,12,20.54V251.48ZM12.28,263.72a7,7,0,0,0-.26,1.09q0,6.93,0,13.85c0,7.31,1.62,8.9,9.07,8.9H338.37c1.24,0,2.8.43,3.67-.15,1.93-1.29,4.82-3,5-4.71.6-6.25.23-12.59.23-19ZM205.2,299.64h-51c-4.74,15.84-9.49,31.65-14.3,47.7H219.5Z"/><path class="cls-1" d="M227.45,239.63H139.89c-12.94,0-20.1-7.2-20.1-20.19V97.81c0-12.69,7.26-19.92,20-19.93,21.08,0,42.16.08,63.24,0a20.44,20.44,0,0,1,15.68,6.56c4.67,4.85,9.58,9.48,14.24,14.33a9.73,9.73,0,0,0,7.61,3.17c24.82-.08,49.64,0,74.46,0,13.28,0,20.42,7.07,20.42,20.23q0,48.66,0,97.31c0,13.17-7.14,20.25-20.4,20.25Zm.12-12h87.21c6.9,0,8.65-1.74,8.65-8.57q0-48.3,0-96.59c0-6.91-1.72-8.66-8.55-8.66-24.7,0-49.4-.1-74.1.06a21.36,21.36,0,0,1-16.65-7c-4.45-4.72-9.22-9.12-13.7-13.82a10.05,10.05,0,0,0-7.94-3.28c-20.71.1-41.42,0-62.13,0-6.87,0-8.59,1.73-8.59,8.63V219c0,6.89,1.74,8.63,8.6,8.63Z"/><path class="cls-1" d="M36.13,123.69A10.35,10.35,0,0,0,36,125c0,4.86-1.56,10.73.61,14.29,2,3.32,7.94,4.69,12.41,6,7.36,2.18,10.86,7.06,13.92,13.9,3.69,8.25,4.55,15.5,0,23.45-2,3.4-4.54,7.7-3.88,11s5.2,5.71,7.71,8.78c2.11,2.56,4.15,3.06,7,1.36a31.61,31.61,0,0,1,4.84-2c15.75-6.31,15.75-6.31,31.42,1.8l-4.44,10.8c-3.7-1.5-7.07-3.07-10.57-4.21a7.84,7.84,0,0,0-4.86,0c-7,2.6-13.87,5.58-20.88,8.16a4.73,4.73,0,0,1-4.07-.8c-6.48-6.21-12.7-12.69-19.17-18.93-1.6-1.55-1.44-2.78-.71-4.55,2.67-6.45,5.13-13,7.85-19.4,1-2.45.83-4.53.06-7.07-2-6.58-5.71-10.8-12.51-12.76-4.87-1.41-9.4-4-14.14-5.87-1.84-.74-2.67-1.66-2.64-3.82q.21-13.27,0-26.57a3.52,3.52,0,0,1,2.54-3.88c6.46-2.64,12.78-5.6,19.28-8.12,2.86-1.11,4-3.09,5.39-5.61,3.09-5.73,3.25-11,.13-16.8-2.46-4.58-3.88-9.71-5.94-14.51-.85-2-.78-3.25.88-4.84q9.42-9.09,18.53-18.52c1.52-1.57,2.78-1.9,4.82-1,6.42,2.72,13,5.14,19.37,7.89,2.61,1.12,4.78.71,7.42,0,6.62-1.86,10.41-5.88,12.4-12.4,1.47-4.86,4-9.4,5.88-14.14.74-1.83,1.64-2.69,3.81-2.65q13.27.21,26.56,0c2.35,0,3.24,1,4,2.89,2.66,6.44,5.57,12.79,8.15,19.27,1,2.4,2.6,3.53,4.74,4.79,6.29,3.69,12.2,3.37,18.54,0a118.46,118.46,0,0,1,14.18-5.75,3.73,3.73,0,0,1,3.21.35c5.5,5.25,10.83,10.66,15.95,15.76L205.13,70c-3.12-3.27-6.2-6.71-9.57-9.84a4.79,4.79,0,0,0-4.05-.84c-6.09,2.2-12,4.84-18.09,7.07a7.59,7.59,0,0,1-4.87,0C163,64.27,157.43,62,152,59.48A7.67,7.67,0,0,1,148.53,56c-2.68-5.76-5.14-11.62-7.54-17.5-.75-1.84-1.61-2.77-3.78-2.64a95.79,95.79,0,0,1-10.85,0c-2.14-.12-3,.75-3.8,2.61-2.34,5.77-4.73,11.53-7.4,17.15a9,9,0,0,1-3.92,4C106,62.14,100.51,64.35,95,66.39a7.59,7.59,0,0,1-4.87,0c-6.07-2.22-12-4.85-18.09-7a4.81,4.81,0,0,0-4.06.84c-3.3,3-8,5.95-8.92,9.7-.83,3.5,2.07,8.26,4.14,12,4,7.26,3.38,13.71.15,21.35C60.08,111,56,116.5,47.72,118.79,43.69,119.9,39.94,122,36.13,123.69Z"/><path class="cls-1" d="M105.33,185.08c-17.59-6.15-32.82-29.52-33.41-50.93-.66-23.92,13.27-47.43,33.31-55.71l5.08,10.09c-34.59,17.82-35.73,67,0,86.43Z"/><path class="cls-1" d="M195.8,142.21l-25.43,25.37L196,193.06l-8.33,8.27L154.42,168l33.71-33.63Z"/><path class="cls-1" d="M267.44,201.07c-2.43-2.33-5.11-4.9-7.78-7.44L285,168.32l-26-25.86,8.26-8.21,33.45,33.52C290,178.53,278.75,189.77,267.44,201.07Z"/><path class="cls-1" d="M220.92,200.69l-10.45-5.83L240.42,141l10.45,5.83Z"/></g></g></svg>