<svg xmlns="http://www.w3.org/2000/svg" viewBox="0 0 359.3 359.3"><defs><style>.cls-1{fill:#fff;}</style></defs><g id="Layer_2" data-name="Layer 2"><g id="Layer_1-2" data-name="Layer 1"><path class="cls-1" d="M215.36,287.44H20.71C7,287.44,0,280.44,0,266.74V20.53C0,7,7,0,20.49,0H338.91c13.25,0,20.39,7.1,20.39,20.28V327.09c0,19.71-12.53,32.2-32.28,32.21H247.7c-19.52,0-32.1-12.55-32.12-32q0-19.26,0-38.54C215.56,288.53,215.49,288.28,215.36,287.44Zm.22-12v-4.87q0-53.5,0-107c0-19.21,12.64-31.81,31.89-31.82,24,0,47.9,0,71.85,0,9.59,0,19.26-.69,27.82,6.14V60.09H12V266.76c0,7.05,1.68,8.7,8.89,8.7H215.58Zm12.24-95.64V311.1H347.13V179.82ZM12,47.66H347.32V21.28c0-7.85-1.47-9.3-9.41-9.3H21.4c-1.12,0-2.25-.06-3.37,0-3.59.25-5.94,2.35-6,5.9C11.91,27.73,12,37.57,12,47.66ZM347.32,167.5v-2.66c.11-14.14-6.84-21.12-21-21.12q-39.67,0-79.35,0c-13.41,0-21.81,10.6-18.85,23.77ZM228,323.55c-2.15,14.61,5.59,23.77,19.94,23.77q40.23,0,80.46,0c13.07,0,21.52-11,18.43-23.76Z"/><path class="cls-1" d="M113.77,239.53H32.56c-6.87,0-8.6-1.74-8.6-8.62q0-63.24,0-126.49c0-6.88,1.72-8.61,8.6-8.61H195c6.87,0,8.61,1.74,8.61,8.61v126.5c0,6.87-1.75,8.61-8.62,8.61ZM36.14,108V212c1.17-1.73,1.94-2.79,2.63-3.9q22.2-35.49,44.37-71c4.38-7,9-7,13.45.13l31.31,50.07c1.63,2.61,3.27,5.2,5.11,8.13,1-1.29,1.71-2.25,2.42-3.25,4.72-6.74,9.42-13.49,14.16-20.21,4.11-5.82,8.15-5.81,12.26.05q13.53,19.28,27,38.58c.68,1,1.44,1.89,2.56,3.34V108Zm53.69,41.1-49,78.3H138.8C122.44,201.19,106.34,175.46,89.83,149.05Zm96.29,78.5c-10.37-14.8-20.23-28.9-30.41-43.44-5.19,7.4-10.07,14.26-14.77,21.25-.47.7-.19,2.35.32,3.21q5.18,8.66,10.65,17.1a4.1,4.1,0,0,0,2.8,1.8C164.89,227.6,175.08,227.55,186.12,227.55Z"/><path class="cls-1" d="M299.52,197.64c4.11.08,6.66,3.82,5.42,8.26-3.28,11.75-6.66,23.47-10,35.2q-6.72,23.52-13.47,47c-1.47,5.06-6.12,6.89-9.7,3.92-2.43-2-2.56-4.52-1.72-7.45,6-20.69,11.84-41.41,17.75-62.12,1.88-6.58,3.73-13.17,5.66-19.74C294.47,199.31,296.63,197.58,299.52,197.64Z"/><path class="cls-1" d="M327,245.55c-6.59-6.57-12.76-12.72-19-18.86-2.21-2.19-3.41-4.62-1.86-7.7,1.73-3.42,6-4.69,8.83-2,8.47,8.09,16.74,16.4,24.88,24.82,2.43,2.5,2,5.58-.72,8.34q-11.55,11.73-23.27,23.27c-2.76,2.72-6.25,2.75-8.69.42s-2.5-6.06.35-8.94C313.84,258.51,320.24,252.24,327,245.55Z"/><path class="cls-1" d="M248,245.69c6,5.94,11.67,11.54,17.32,17.15a33.22,33.22,0,0,1,2.35,2.4c2.33,2.82,2.25,6.07-.13,8.4a5.72,5.72,0,0,1-8.39-.07q-12-11.74-23.76-23.77c-2.67-2.73-2.62-5.9.08-8.66q11.64-11.87,23.5-23.51c2.76-2.71,6.23-2.69,8.67-.29s2.5,5.89-.19,8.66c-5.36,5.55-10.88,10.95-16.33,16.41C250.19,243.36,249.28,244.36,248,245.69Z"/><path class="cls-1" d="M224.18,35.93H122.76a21.07,21.07,0,0,1-3.73-.1c-3.22-.59-5.17-2.58-5.17-5.89s1.94-5.29,5.17-5.89a18.8,18.8,0,0,1,3.36-.09q102.17,0,204.34,0a18.8,18.8,0,0,1,3.36.09c3.22.59,5.17,2.58,5.17,5.89s-1.95,5.3-5.17,5.89a21.15,21.15,0,0,1-3.74.1Z"/><path class="cls-1" d="M32.81,35.93c-.75,0-1.5,0-2.25,0-4-.16-6.65-2.58-6.58-6.11.08-3.38,2.6-5.69,6.46-5.84q2.43-.09,4.86,0c4.05.13,6.66,2.58,6.59,6.09s-2.62,5.69-6.47,5.86C34.55,36,33.68,35.92,32.81,35.93Z"/><path class="cls-1" d="M56.65,35.88a20.91,20.91,0,0,1-3.36,0c-3.23-.53-5.14-2.47-5.33-5.78a5.8,5.8,0,0,1,5.43-6,45.87,45.87,0,0,1,6-.06c3.86.13,6.39,2.45,6.47,5.83s-2.54,6-6.57,6.12c-.88,0-1.75,0-2.62,0Z"/><path class="cls-1" d="M80.55,35.89a27.1,27.1,0,0,1-3,0A6,6,0,0,1,71.89,30a5.86,5.86,0,0,1,5.5-6,42,42,0,0,1,6.73,0,5.87,5.87,0,0,1,5.67,5.83,6,6,0,0,1-5.5,6A35.86,35.86,0,0,1,80.55,35.89Z"/><path class="cls-1" d="M287.67,149.73c2,0,4-.11,6,0a5.93,5.93,0,0,1-.09,11.86q-6.17.25-12.34,0a5.83,5.83,0,0,1-5.73-5.78,5.9,5.9,0,0,1,5.82-6.07C283.42,149.61,285.55,149.73,287.67,149.73Z"/><path class="cls-1" d="M287.25,341.31c-2,0-4,.12-6,0a5.93,5.93,0,0,1-5.78-6.12,5.84,5.84,0,0,1,5.77-5.74c4.11-.17,8.24-.16,12.34,0a5.84,5.84,0,0,1,5.78,5.73,5.93,5.93,0,0,1-5.77,6.13C291.5,341.43,289.37,341.31,287.25,341.31Z"/><path class="cls-1" d="M137.69,119.79A17.95,17.95,0,1,1,119.78,138,18,18,0,0,1,137.69,119.79Zm6,18.11a6,6,0,1,0-6,5.79A6,6,0,0,0,143.69,137.9Z"/></g></g></svg>